<?xml version="1.0" encoding="UTF-8" standalone="no"?>
<!-- Created with Inkscape (http://www.inkscape.org/) -->

<svg
   width="54.940483mm"
   height="32.525383mm"
   viewBox="0 0 54.940483 32.525383"
   version="1.1"
   id="svg1"
   inkscape:version="1.4.3 (0d15f75, 2025-12-25)"
   sodipodi:docname="logo-oslomet2.svg"
   xmlns:inkscape="http://www.inkscape.org/namespaces/inkscape"
   xmlns:sodipodi="http://sodipodi.sourceforge.net/DTD/sodipodi-0.dtd"
   xmlns="http://www.w3.org/2000/svg"
   xmlns:svg="http://www.w3.org/2000/svg">
  <sodipodi:namedview
     id="namedview1"
     pagecolor="#ffffff"
     bordercolor="#000000"
     borderopacity="0.25"
     inkscape:showpageshadow="2"
     inkscape:pageopacity="0.0"
     inkscape:pagecheckerboard="0"
     inkscape:deskcolor="#d1d1d1"
     inkscape:document-units="mm"
     inkscape:zoom="0.85665806"
     inkscape:cx="68.288624"
     inkscape:cy="103.89209"
     inkscape:window-width="1346"
     inkscape:window-height="849"
     inkscape:window-x="0"
     inkscape:window-y="53"
     inkscape:window-maximized="0"
     inkscape:current-layer="layer1" />
  <defs
     id="defs1">
    <clipPath
       clipPathUnits="userSpaceOnUse"
       id="clipPath2">
      <path
         d="M 0,406 H 623 V 0 H 0 Z"
         transform="translate(-79.440902,-239.31151)"
         id="path2" />
    </clipPath>
    <clipPath
       clipPathUnits="userSpaceOnUse"
       id="clipPath4">
      <path
         d="M 0,406 H 623 V 0 H 0 Z"
         transform="translate(-106.0249,-243.83011)"
         id="path4" />
    </clipPath>
    <clipPath
       clipPathUnits="userSpaceOnUse"
       id="clipPath6">
      <path
         d="M 0,406 H 623 V 0 H 0 Z"
         transform="translate(-137.7358,-297.67331)"
         id="path6" />
    </clipPath>
    <clipPath
       clipPathUnits="userSpaceOnUse"
       id="clipPath8">
      <path
         d="M 0,406 H 623 V 0 H 0 Z"
         transform="translate(-124.8213,-272.76511)"
         id="path8" />
    </clipPath>
    <clipPath
       clipPathUnits="userSpaceOnUse"
       id="clipPath10">
      <path
         d="M 0,406 H 623 V 0 H 0 Z"
         transform="translate(-209.15281,-227.1191)"
         id="path10" />
    </clipPath>
    <clipPath
       clipPathUnits="userSpaceOnUse"
       id="clipPath12">
      <path
         d="M 0,406 H 623 V 0 H 0 Z"
         transform="translate(-179.42631,-232.5317)"
         id="path12" />
    </clipPath>
    <clipPath
       clipPathUnits="userSpaceOnUse"
       id="clipPath14">
      <path
         d="M 0,406 H 623 V 0 H 0 Z"
         transform="translate(-158.67141,-244.46041)"
         id="path14" />
    </clipPath>
  </defs>
  <g
     inkscape:label="Layer 1"
     inkscape:groupmode="layer"
     id="layer1"
     transform="translate(-80.9625,-132.29167)">
    <path
       id="path1"
       d="m 0,0 c -3.647,3.646 -8.887,3.799 -12.196,0.49 -3.433,-3.432 -3.218,-8.611 0.428,-12.258 3.648,-3.648 8.827,-3.862 12.259,-0.43 C 3.831,-8.858 3.647,-3.648 0,0 m -16.855,-16.855 c -6.283,6.282 -6.405,15.659 -0.03,22.033 6.282,6.282 15.69,6.191 21.972,-0.091 6.282,-6.282 6.374,-15.691 0.092,-21.973 -6.405,-6.405 -15.752,-6.252 -22.034,0.031"
       style="fill:#000000;fill-opacity:1;fill-rule:nonzero;stroke:none"
       transform="matrix(0.35277776,0,0,-0.35277776,88.588469,156.35342)"
       clip-path="url(#clipPath2)" />
    <path
       id="path3"
       d="m 0,0 c -5.087,-5.087 -11.186,-4.872 -15.568,-0.49 l 4.75,4.751 c 2.054,-2.054 4.535,-2.269 6.834,0.03 1.378,1.378 1.9,3.248 0.521,4.627 -1.471,1.471 -3.8,0.796 -7.109,-0.675 -4.045,-1.655 -9.01,-3.493 -12.565,0.062 -4.076,4.075 -3.187,9.5 0.796,13.483 4.69,4.69 10.42,4.352 14.036,0.736 l -4.443,-4.444 c -1.564,1.317 -3.616,1.472 -5.455,-0.367 -1.349,-1.348 -1.594,-3.004 -0.429,-4.169 1.133,-1.133 2.695,-0.672 5.946,0.675 5.577,2.207 10.356,3.494 14.249,-0.398 C 5.639,9.745 4.444,4.444 0,0"
       style="fill:#000000;fill-opacity:1;fill-rule:nonzero;stroke:none"
       transform="matrix(0.35277776,0,0,-0.35277776,97.966712,154.75936)"
       clip-path="url(#clipPath4)" />
    <path
       id="path5"
       d="m 0,0 c -3.646,3.647 -8.887,3.799 -12.196,0.49 -3.432,-3.432 -3.218,-8.611 0.429,-12.257 3.647,-3.648 8.826,-3.862 12.258,-0.43 C 3.831,-8.857 3.648,-3.647 0,0 m -16.854,-16.854 c -6.282,6.282 -6.404,15.659 -0.031,22.033 6.282,6.282 15.69,6.19 21.972,-0.092 6.282,-6.282 6.375,-15.691 0.093,-21.973 -6.406,-6.405 -15.752,-6.25 -22.034,0.032"
       style="fill:#000000;fill-opacity:1;fill-rule:nonzero;stroke:none"
       transform="matrix(0.35277776,0,0,-0.35277776,109.15361,135.76468)"
       clip-path="url(#clipPath6)" />
    <path
       id="path7"
       d="M 0,0 4.676,-4.676 -7.497,-16.85 -28.807,4.459 -24.056,9.21 -7.423,-7.423 Z"
       style="fill:#000000;fill-opacity:1;fill-rule:nonzero;stroke:none"
       transform="matrix(0.35277776,0,0,-0.35277776,104.59767,144.55174)"
       clip-path="url(#clipPath8)" />
    <path
       id="path9"
       d="m 0,0 -4.747,4.748 -16.546,-16.547 -4.842,4.842 16.546,16.546 -4.751,4.751 4.408,4.408 14.34,-14.34 z"
       style="fill:#000000;fill-opacity:1;fill-rule:nonzero;stroke:none"
       transform="matrix(0.35277776,0,0,-0.35277776,134.34794,160.65463)"
       clip-path="url(#clipPath10)" />
    <path
       id="path11"
       d="M 0,0 -4.413,-4.413 -16.894,8.067 4.084,29.045 16.553,16.576 12.141,12.163 4.39,19.914 0.551,16.075 7.58,9.046 3.411,4.878 -3.617,11.907 -7.762,7.762 Z"
       style="fill:#000000;fill-opacity:1;fill-rule:nonzero;stroke:none"
       transform="matrix(0.35277776,0,0,-0.35277776,123.8611,158.74519)"
       clip-path="url(#clipPath12)" />
    <path
       id="path13"
       d="M 0,0 -4.688,4.688 6.85,16.295 -8.719,8.714 -13.048,13.042 -5.48,28.757 -17.09,17.09 -21.779,21.779 -0.801,42.757 5.45,36.506 -4.129,17.571 14.696,27.26 20.978,20.978 Z"
       style="fill:#000000;fill-opacity:1;fill-rule:nonzero;stroke:none"
       transform="matrix(0.35277776,0,0,-0.35277776,116.53923,154.537)"
       clip-path="url(#clipPath14)" />
  </g>
</svg>
